<svg width="500" height="156" viewBox="0 0 500 156" fill="none" xmlns="http://www.w3.org/2000/svg">
<rect width="500" height="156" rx="78" fill="white" fill-opacity="0.3"/>
<path opacity="0.7" fill-rule="evenodd" clip-rule="evenodd" d="M78 13C42.1015 13 13 42.1015 13 78C13 113.899 42.1015 143 78 143C113.899 143 143 113.899 143 78C143 42.1015 113.899 13 78 13ZM55.3679 114.288L119.228 78.8549L55.3679 43.4218L55.3679 114.288Z" fill="white"/>
<path d="M195.293 105H225.053V97.064H204.765V84.456H221.341V76.456H204.765V65.512H224.349V57.64H195.293V105Z" fill="white"/>
<path d="M233.9 105H243.308V80.36C245.932 77.8 247.788 76.392 250.732 76.392C254.188 76.392 255.788 78.248 255.788 83.88V105H265.196V82.664C265.196 73.704 261.804 68.328 254.124 68.328C249.26 68.328 245.548 70.888 242.476 73.96H242.284L241.516 69.224H233.9V105Z" fill="white"/>
<path d="M287.444 120.552C299.412 120.552 307.028 115.112 307.028 107.88C307.028 101.544 302.292 98.92 293.652 98.92H287.508C283.348 98.92 281.876 97.832 281.876 95.976C281.876 94.504 282.452 93.736 283.412 92.84C285.012 93.416 286.612 93.672 288.02 93.672C295.764 93.672 301.908 89.64 301.908 81.512C301.908 79.336 301.204 77.352 300.244 76.136H306.388V69.224H293.46C291.988 68.648 290.068 68.328 288.02 68.328C280.468 68.328 273.556 72.808 273.556 81.256C273.556 85.48 275.924 88.872 278.42 90.664V90.92C276.18 92.456 274.388 94.888 274.388 97.576C274.388 100.52 275.796 102.44 277.652 103.656V103.976C274.324 105.768 272.532 108.392 272.532 111.4C272.532 117.672 279.06 120.552 287.444 120.552ZM288.02 87.912C284.884 87.912 282.388 85.48 282.388 81.256C282.388 77.032 284.884 74.728 288.02 74.728C291.22 74.728 293.652 77.032 293.652 81.256C293.652 85.48 291.156 87.912 288.02 87.912ZM288.916 114.6C283.668 114.6 280.34 112.936 280.34 109.928C280.34 108.456 281.044 107.048 282.708 105.704C283.988 106.088 285.46 106.216 287.636 106.216H291.988C295.828 106.216 297.94 106.92 297.94 109.48C297.94 112.232 294.292 114.6 288.916 114.6Z" fill="white"/>
<path d="M336.675 105H347.939L362.467 57.64H352.803L346.659 80.68C345.251 85.992 344.227 90.664 342.691 96.04H342.371C340.899 90.664 339.811 85.992 338.339 80.68L332.131 57.64H322.147L336.675 105Z" fill="white"/>
<path d="M381.203 105.896C385.619 105.896 390.099 104.424 393.619 101.992L390.483 96.168C387.859 97.768 385.299 98.664 382.419 98.664C377.107 98.664 373.267 95.656 372.435 89.768H394.579C394.771 88.872 394.963 87.208 394.963 85.416C394.963 75.496 389.907 68.328 379.987 68.328C371.539 68.328 363.347 75.496 363.347 87.144C363.347 98.984 371.155 105.896 381.203 105.896ZM372.307 83.496C373.075 78.248 376.403 75.56 380.179 75.56C384.787 75.56 386.963 78.632 386.963 83.496H372.307Z" fill="white"/>
<path d="M402.775 105H412.183V83.688C414.167 78.504 417.559 76.584 420.311 76.584C421.847 76.584 422.807 76.84 424.087 77.16L425.687 69.096C424.599 68.584 423.447 68.328 421.527 68.328C417.815 68.328 413.911 70.824 411.351 75.56H411.159L410.391 69.224H402.775V105Z" fill="white"/>
<path d="M430.087 105.896C433.415 105.896 435.975 103.272 435.975 99.752C435.975 96.232 433.415 93.672 430.087 93.672C426.695 93.672 424.263 96.232 424.263 99.752C424.263 103.272 426.695 105.896 430.087 105.896Z" fill="white"/>
</svg>
