<svg width="500" height="156" viewBox="0 0 500 156" fill="none" xmlns="http://www.w3.org/2000/svg">
<rect width="500" height="156" rx="78" fill="white" fill-opacity="0.3"/>
<path opacity="0.7" fill-rule="evenodd" clip-rule="evenodd" d="M78 13C42.1015 13 13 42.1015 13 78C13 113.899 42.1015 143 78 143C113.899 143 143 113.899 143 78C143 42.1015 113.899 13 78 13ZM55.3679 114.288L119.228 78.855L55.3679 43.4218L55.3679 114.288Z" fill="white"/>
<path d="M224.568 62.8V95.248H232.312V70.352H269.432V94.928H277.496V62.8H224.568ZM228.6 84.112V91.664H273.912V84.112H228.6ZM246.776 51.664V111.76H254.904V51.664H246.776Z" fill="white"/>
<path d="M327.224 66C320.824 87.312 307.256 98.832 284.6 104.464C286.072 106.256 288.44 109.84 289.272 111.696C312.76 104.784 327.48 91.664 335.224 68.176L327.224 66ZM302.52 66.448L295.352 68.688C303.416 90.384 316.92 104.976 340.408 111.248C341.624 109.136 343.864 105.744 345.656 104.08C323.192 98.896 309.112 85.264 302.52 66.448ZM285.816 62.416V69.968H344.44V62.416H285.816ZM309.368 53.392C310.968 56.592 312.632 60.816 313.208 63.44L321.912 60.752C321.208 58.064 319.224 53.968 317.56 50.96L309.368 53.392Z" fill="white"/>
<path d="M381.304 70.864V77.84H402.488V70.864H381.304ZM356.088 82.448V89.232H365.24V111.568H372.216V82.448H356.088ZM352.696 52.176V77.52C352.696 86.992 352.312 99.472 348.536 107.408C350.072 108.432 352.632 110.672 353.784 112.08C358.904 103.056 359.48 89.04 359.48 77.584V52.176H352.696ZM400.184 70.864V72.272C398.008 87.696 390.776 100.176 380.344 105.616C381.944 107.088 384.12 110.032 385.208 111.952C397.048 104.656 404.728 91.664 407.544 72.08L402.808 70.672L401.528 70.864H400.184ZM389.24 75.472L383.032 76.944C386.744 92.368 393.016 104.912 404.28 111.504C405.496 109.456 407.864 106.576 409.528 105.104C398.904 99.856 392.376 88.528 389.24 75.472ZM377.464 57.104V77.968C377.464 86.928 376.952 99.92 372.408 108.112C374.2 109.008 377.016 111.056 378.36 112.272C383.864 103.056 384.632 88.656 384.632 78.032V57.104H377.464ZM365.752 53.52V70.48H356.728V77.2H372.664V53.52H365.752ZM377.464 55.312V62.224H406.52V55.312H377.464Z" fill="white"/>
</svg>
