<svg width="100" height="100" viewBox="0 0 100 100" fill="none" xmlns="http://www.w3.org/2000/svg">
<path fill-rule="evenodd" clip-rule="evenodd" d="M98.3544 9.59483C100.549 7.3999 100.549 3.8412 98.3544 1.64627C96.1595 -0.54867 92.6008 -0.548674 90.4058 1.64626L50.0003 42.0518L9.59477 1.6462C7.39983 -0.548734 3.84114 -0.548733 1.6462 1.6462C-0.548732 3.84114 -0.548736 7.39983 1.6462 9.59476L42.0518 50.0003L1.64685 90.4052C-0.548084 92.6002 -0.548084 96.1589 1.64685 98.3538C3.84178 100.549 7.40048 100.549 9.59541 98.3538L50.0003 57.9489L90.4052 98.3537C92.6001 100.549 96.1588 100.549 98.3537 98.3537C100.549 96.1588 100.549 92.6001 98.3537 90.4052L57.9489 50.0003L98.3544 9.59483Z" fill="white"/>
</svg>
